<svg width="32" height="32" viewBox="0 0 32 32" fill="none" xmlns="http://www.w3.org/2000/svg">
<path d="M9.33325 29.3337C8.59992 29.3337 7.97214 29.0725 7.44992 28.5503C6.9277 28.0281 6.66659 27.4003 6.66659 26.667C6.66659 25.9337 6.9277 25.3059 7.44992 24.7837C7.97214 24.2614 8.59992 24.0003 9.33325 24.0003C10.0666 24.0003 10.6944 24.2614 11.2166 24.7837C11.7388 25.3059 11.9999 25.9337 11.9999 26.667C11.9999 27.4003 11.7388 28.0281 11.2166 28.5503C10.6944 29.0725 10.0666 29.3337 9.33325 29.3337ZM22.6666 29.3337C21.9333 29.3337 21.3055 29.0725 20.7833 28.5503C20.261 28.0281 19.9999 27.4003 19.9999 26.667C19.9999 25.9337 20.261 25.3059 20.7833 24.7837C21.3055 24.2614 21.9333 24.0003 22.6666 24.0003C23.3999 24.0003 24.0277 24.2614 24.5499 24.7837C25.0721 25.3059 25.3333 25.9337 25.3333 26.667C25.3333 27.4003 25.0721 28.0281 24.5499 28.5503C24.0277 29.0725 23.3999 29.3337 22.6666 29.3337ZM8.19992 8.00033L11.3999 14.667H20.7333L24.3999 8.00033H8.19992ZM6.93325 5.33366H26.5999C27.111 5.33366 27.4999 5.56144 27.7666 6.01699C28.0333 6.47255 28.0444 6.93366 27.7999 7.40033L23.0666 15.9337C22.8221 16.3781 22.4944 16.7225 22.0833 16.967C21.6721 17.2114 21.2221 17.3337 20.7333 17.3337H10.7999L9.33325 20.0003H25.3333V22.667H9.33325C8.33325 22.667 7.5777 22.2281 7.06659 21.3503C6.55547 20.4725 6.53325 19.6003 6.99992 18.7337L8.79992 15.467L3.99992 5.33366H1.33325V2.66699H5.66659L6.93325 5.33366Z" fill="#EDEDED"/>
<rect x="24" y="2.66699" width="6.66667" height="6.66667" rx="3.33333" fill="#706DE0"/>
</svg>
