<svg width="32" height="32" viewBox="0 0 32 32" fill="none" xmlns="http://www.w3.org/2000/svg">
<rect width="32" height="32" fill="#1A1A1A"/>
<path d="M5.33317 26.6663C4.59984 26.6663 3.97206 26.4052 3.44984 25.883C2.92761 25.3608 2.6665 24.733 2.6665 23.9997V7.99967C2.6665 7.26634 2.92761 6.63856 3.44984 6.11634C3.97206 5.59412 4.59984 5.33301 5.33317 5.33301H26.6665C27.3998 5.33301 28.0276 5.59412 28.5498 6.11634C29.0721 6.63856 29.3332 7.26634 29.3332 7.99967V23.9997C29.3332 24.733 29.0721 25.3608 28.5498 25.883C28.0276 26.4052 27.3998 26.6663 26.6665 26.6663H5.33317ZM15.9998 17.333L5.33317 10.6663V23.9997H26.6665V10.6663L15.9998 17.333ZM15.9998 14.6663L26.6665 7.99967H5.33317L15.9998 14.6663ZM5.33317 10.6663V7.99967V23.9997V10.6663Z" fill="#F7F7F7"/>
</svg>
