<svg width="64" height="64" viewBox="0 0 64 64" fill="none" xmlns="http://www.w3.org/2000/svg">
<rect width="64" height="64" fill="#1A1A1A"/>
<path d="M10.6666 53.3337C9.19992 53.3337 7.94436 52.8114 6.89992 51.767C5.85547 50.7225 5.33325 49.467 5.33325 48.0003V16.0003C5.33325 14.5337 5.85547 13.2781 6.89992 12.2337C7.94436 11.1892 9.19992 10.667 10.6666 10.667H53.3332C54.7999 10.667 56.0555 11.1892 57.0999 12.2337C58.1444 13.2781 58.6666 14.5337 58.6666 16.0003V48.0003C58.6666 49.467 58.1444 50.7225 57.0999 51.767C56.0555 52.8114 54.7999 53.3337 53.3332 53.3337H10.6666ZM31.9999 34.667L10.6666 21.3337V48.0003H53.3332V21.3337L31.9999 34.667ZM31.9999 29.3337L53.3332 16.0003H10.6666L31.9999 29.3337ZM10.6666 21.3337V16.0003V48.0003V21.3337Z" fill="#F7F7F7"/>
</svg>
