<svg width="32" height="32" viewBox="0 0 32 32" fill="none" xmlns="http://www.w3.org/2000/svg">
<path d="M7.99984 18.666H18.6665V15.9993H7.99984V18.666ZM7.99984 14.666H23.9998V11.9993H7.99984V14.666ZM7.99984 10.666H23.9998V7.99935H7.99984V10.666ZM2.6665 29.3327V5.33268C2.6665 4.59935 2.92761 3.97157 3.44984 3.44935C3.97206 2.92713 4.59984 2.66602 5.33317 2.66602H26.6665C27.3998 2.66602 28.0276 2.92713 28.5498 3.44935C29.0721 3.97157 29.3332 4.59935 29.3332 5.33268V21.3327C29.3332 22.066 29.0721 22.6938 28.5498 23.216C28.0276 23.7382 27.3998 23.9993 26.6665 23.9993H7.99984L2.6665 29.3327ZM6.8665 21.3327H26.6665V5.33268H5.33317V22.8327L6.8665 21.3327Z" fill="#1A1A1A"/>
</svg>
