<svg width="64" height="64" viewBox="0 0 64 64" fill="none" xmlns="http://www.w3.org/2000/svg">
<rect x="1" y="1" width="62" height="62" fill="#1A1A1A"/>
<rect x="1" y="1" width="62" height="62" stroke="#1A1A1A" stroke-width="2"/>
<path d="M15.9999 37.333H37.3333V31.9997H15.9999V37.333ZM15.9999 29.333H47.9999V23.9997H15.9999V29.333ZM15.9999 21.333H47.9999V15.9997H15.9999V21.333ZM5.33325 58.6663V10.6663C5.33325 9.19967 5.85547 7.94412 6.89992 6.89967C7.94436 5.85523 9.19992 5.33301 10.6666 5.33301H53.3332C54.7999 5.33301 56.0555 5.85523 57.0999 6.89967C58.1444 7.94412 58.6666 9.19967 58.6666 10.6663V42.6663C58.6666 44.133 58.1444 45.3886 57.0999 46.433C56.0555 47.4775 54.7999 47.9997 53.3332 47.9997H15.9999L5.33325 58.6663ZM13.7333 42.6663H53.3332V10.6663H10.6666V45.6663L13.7333 42.6663Z" fill="#F7F7F7"/>
</svg>
