<svg width="64" height="64" viewBox="0 0 64 64" fill="none" xmlns="http://www.w3.org/2000/svg">
<rect width="64" height="64" fill="#1A1A1A"/>
<path d="M32.0001 32.0003C29.0667 32.0003 26.5556 30.9559 24.4667 28.867C22.3779 26.7781 21.3334 24.267 21.3334 21.3337C21.3334 18.4003 22.3779 15.8892 24.4667 13.8003C26.5556 11.7114 29.0667 10.667 32.0001 10.667C34.9334 10.667 37.4445 11.7114 39.5334 13.8003C41.6223 15.8892 42.6667 18.4003 42.6667 21.3337C42.6667 24.267 41.6223 26.7781 39.5334 28.867C37.4445 30.9559 34.9334 32.0003 32.0001 32.0003ZM10.6667 53.3337V45.867C10.6667 44.3559 11.0556 42.967 11.8334 41.7003C12.6112 40.4337 13.6445 39.467 14.9334 38.8003C17.689 37.4225 20.489 36.3892 23.3334 35.7003C26.1779 35.0114 29.0667 34.667 32.0001 34.667C34.9334 34.667 37.8223 35.0114 40.6667 35.7003C43.5112 36.3892 46.3112 37.4225 49.0667 38.8003C50.3556 39.467 51.389 40.4337 52.1668 41.7003C52.9445 42.967 53.3334 44.3559 53.3334 45.867V53.3337H10.6667ZM16.0001 48.0003H48.0001V45.867C48.0001 45.3781 47.8779 44.9337 47.6334 44.5337C47.389 44.1337 47.0667 43.8225 46.6667 43.6003C44.2668 42.4003 41.8445 41.5003 39.4001 40.9003C36.9556 40.3003 34.489 40.0003 32.0001 40.0003C29.5112 40.0003 27.0445 40.3003 24.6001 40.9003C22.1556 41.5003 19.7334 42.4003 17.3334 43.6003C16.9334 43.8225 16.6112 44.1337 16.3667 44.5337C16.1223 44.9337 16.0001 45.3781 16.0001 45.867V48.0003ZM32.0001 26.667C33.4667 26.667 34.7223 26.1448 35.7667 25.1003C36.8112 24.0559 37.3334 22.8003 37.3334 21.3337C37.3334 19.867 36.8112 18.6114 35.7667 17.567C34.7223 16.5225 33.4667 16.0003 32.0001 16.0003C30.5334 16.0003 29.2779 16.5225 28.2334 17.567C27.189 18.6114 26.6667 19.867 26.6667 21.3337C26.6667 22.8003 27.189 24.0559 28.2334 25.1003C29.2779 26.1448 30.5334 26.667 32.0001 26.667Z" fill="#F7F7F7"/>
</svg>
