<svg width="32" height="32" viewBox="0 0 32 32" fill="none" xmlns="http://www.w3.org/2000/svg">
<rect width="32" height="32" fill="#1A1A1A"/>
<path d="M16.0002 15.9997C14.5335 15.9997 13.2779 15.4775 12.2335 14.433C11.1891 13.3886 10.6668 12.133 10.6668 10.6663C10.6668 9.19967 11.1891 7.94412 12.2335 6.89967C13.2779 5.85523 14.5335 5.33301 16.0002 5.33301C17.4668 5.33301 18.7224 5.85523 19.7668 6.89967C20.8113 7.94412 21.3335 9.19967 21.3335 10.6663C21.3335 12.133 20.8113 13.3886 19.7668 14.433C18.7224 15.4775 17.4668 15.9997 16.0002 15.9997ZM5.3335 26.6663V22.933C5.3335 22.1775 5.52794 21.483 5.91683 20.8497C6.30572 20.2163 6.82239 19.733 7.46683 19.3997C8.84461 18.7108 10.2446 18.1941 11.6668 17.8497C13.0891 17.5052 14.5335 17.333 16.0002 17.333C17.4668 17.333 18.9113 17.5052 20.3335 17.8497C21.7557 18.1941 23.1557 18.7108 24.5335 19.3997C25.1779 19.733 25.6946 20.2163 26.0835 20.8497C26.4724 21.483 26.6668 22.1775 26.6668 22.933V26.6663H5.3335ZM8.00016 23.9997H24.0002V22.933C24.0002 22.6886 23.9391 22.4663 23.8168 22.2663C23.6946 22.0663 23.5335 21.9108 23.3335 21.7997C22.1335 21.1997 20.9224 20.7497 19.7002 20.4497C18.4779 20.1497 17.2446 19.9997 16.0002 19.9997C14.7557 19.9997 13.5224 20.1497 12.3002 20.4497C11.0779 20.7497 9.86683 21.1997 8.66683 21.7997C8.46683 21.9108 8.30572 22.0663 8.1835 22.2663C8.06127 22.4663 8.00016 22.6886 8.00016 22.933V23.9997ZM16.0002 13.333C16.7335 13.333 17.3613 13.0719 17.8835 12.5497C18.4057 12.0275 18.6668 11.3997 18.6668 10.6663C18.6668 9.93301 18.4057 9.30523 17.8835 8.78301C17.3613 8.26079 16.7335 7.99967 16.0002 7.99967C15.2668 7.99967 14.6391 8.26079 14.1168 8.78301C13.5946 9.30523 13.3335 9.93301 13.3335 10.6663C13.3335 11.3997 13.5946 12.0275 14.1168 12.5497C14.6391 13.0719 15.2668 13.333 16.0002 13.333Z" fill="#F7F7F7"/>
</svg>
