<svg width="32" height="32" viewBox="0 0 32 32" fill="none" xmlns="http://www.w3.org/2000/svg">
<path d="M15.9332 24.0003C16.3998 24.0003 16.7943 23.8392 17.1165 23.517C17.4387 23.1948 17.5998 22.8003 17.5998 22.3337C17.5998 21.867 17.4387 21.4725 17.1165 21.1503C16.7943 20.8281 16.3998 20.667 15.9332 20.667C15.4665 20.667 15.0721 20.8281 14.7498 21.1503C14.4276 21.4725 14.2665 21.867 14.2665 22.3337C14.2665 22.8003 14.4276 23.1948 14.7498 23.517C15.0721 23.8392 15.4665 24.0003 15.9332 24.0003ZM14.7332 18.867H17.1998C17.1998 18.1337 17.2832 17.5559 17.4498 17.1337C17.6165 16.7114 18.0887 16.1337 18.8665 15.4003C19.4443 14.8225 19.8998 14.2725 20.2332 13.7503C20.5665 13.2281 20.7332 12.6003 20.7332 11.867C20.7332 10.6225 20.2776 9.66699 19.3665 9.00033C18.4554 8.33366 17.3776 8.00033 16.1332 8.00033C14.8665 8.00033 13.8387 8.33366 13.0498 9.00033C12.2609 9.66699 11.7109 10.467 11.3998 11.4003L13.5998 12.267C13.7109 11.867 13.9609 11.4337 14.3498 10.967C14.7387 10.5003 15.3332 10.267 16.1332 10.267C16.8443 10.267 17.3776 10.4614 17.7332 10.8503C18.0887 11.2392 18.2665 11.667 18.2665 12.1337C18.2665 12.5781 18.1332 12.9948 17.8665 13.3837C17.5998 13.7725 17.2665 14.1337 16.8665 14.467C15.8887 15.3337 15.2887 15.9892 15.0665 16.4337C14.8443 16.8781 14.7332 17.6892 14.7332 18.867ZM15.9998 29.3337C14.1554 29.3337 12.4221 28.9837 10.7998 28.2837C9.17761 27.5837 7.7665 26.6337 6.5665 25.4337C5.3665 24.2337 4.4165 22.8225 3.7165 21.2003C3.0165 19.5781 2.6665 17.8448 2.6665 16.0003C2.6665 14.1559 3.0165 12.4225 3.7165 10.8003C4.4165 9.1781 5.3665 7.76699 6.5665 6.56699C7.7665 5.36699 9.17761 4.41699 10.7998 3.71699C12.4221 3.01699 14.1554 2.66699 15.9998 2.66699C17.8443 2.66699 19.5776 3.01699 21.1998 3.71699C22.8221 4.41699 24.2332 5.36699 25.4332 6.56699C26.6332 7.76699 27.5832 9.1781 28.2832 10.8003C28.9832 12.4225 29.3332 14.1559 29.3332 16.0003C29.3332 17.8448 28.9832 19.5781 28.2832 21.2003C27.5832 22.8225 26.6332 24.2337 25.4332 25.4337C24.2332 26.6337 22.8221 27.5837 21.1998 28.2837C19.5776 28.9837 17.8443 29.3337 15.9998 29.3337ZM15.9998 26.667C18.9776 26.667 21.4998 25.6337 23.5665 23.567C25.6332 21.5003 26.6665 18.9781 26.6665 16.0003C26.6665 13.0225 25.6332 10.5003 23.5665 8.43366C21.4998 6.36699 18.9776 5.33366 15.9998 5.33366C13.0221 5.33366 10.4998 6.36699 8.43317 8.43366C6.3665 10.5003 5.33317 13.0225 5.33317 16.0003C5.33317 18.9781 6.3665 21.5003 8.43317 23.567C10.4998 25.6337 13.0221 26.667 15.9998 26.667Z" fill="#EDEDED"/>
</svg>
