<svg width="32" height="32" viewBox="0 0 32 32" fill="none" xmlns="http://www.w3.org/2000/svg">
<path d="M25.2002 28.0001L17.9002 20.7001L20.7002 17.9001L28.0002 25.2001L25.2002 28.0001ZM6.80016 28.0001L4.00016 25.2001L13.2002 16.0001L10.9335 13.7335L10.0002 14.6668L8.30016 12.9668V15.7001L7.36683 16.6335L3.3335 12.6001L4.26683 11.6668H7.00016L5.3335 10.0001L10.0668 5.2668C10.5113 4.82235 10.9891 4.50013 11.5002 4.30013C12.0113 4.10013 12.5335 4.00013 13.0668 4.00013C13.6002 4.00013 14.1224 4.10013 14.6335 4.30013C15.1446 4.50013 15.6224 4.82235 16.0668 5.2668L13.0002 8.33346L14.6668 10.0001L13.7335 10.9335L16.0002 13.2001L19.0002 10.2001C18.9113 9.95569 18.8391 9.70013 18.7835 9.43346C18.7279 9.1668 18.7002 8.90013 18.7002 8.63346C18.7002 7.32235 19.1502 6.2168 20.0502 5.3168C20.9502 4.4168 22.0557 3.9668 23.3668 3.9668C23.7002 3.9668 24.0168 4.00013 24.3168 4.0668C24.6168 4.13346 24.9224 4.23346 25.2335 4.3668L21.9335 7.6668L24.3335 10.0668L27.6335 6.7668C27.7891 7.07791 27.8946 7.38346 27.9502 7.68346C28.0057 7.98346 28.0335 8.30013 28.0335 8.63346C28.0335 9.94457 27.5835 11.0501 26.6835 11.9501C25.7835 12.8501 24.6779 13.3001 23.3668 13.3001C23.1002 13.3001 22.8335 13.2779 22.5668 13.2335C22.3002 13.189 22.0446 13.1112 21.8002 13.0001L6.80016 28.0001Z" fill="#EDEDED"/>
</svg>
