<svg width="32" height="32" viewBox="0 0 32 32" fill="none" xmlns="http://www.w3.org/2000/svg">
<path d="M5.16667 26.8333C4.43333 26.8333 3.80556 26.5722 3.28333 26.05C2.76111 25.5278 2.5 24.9 2.5 24.1667V8.16667C2.5 7.43333 2.76111 6.80556 3.28333 6.28333C3.80556 5.76111 4.43333 5.5 5.16667 5.5H26.5C27.2333 5.5 27.8611 5.76111 28.3833 6.28333C28.9056 6.80556 29.1667 7.43333 29.1667 8.16667V24.1667C29.1667 24.9 28.9056 25.5278 28.3833 26.05C27.8611 26.5722 27.2333 26.8333 26.5 26.8333H5.16667ZM15.8333 17.5L5.16667 10.8333V24.1667H26.5V10.8333L15.8333 17.5ZM15.8333 14.8333L26.5 8.16667H5.16667L15.8333 14.8333ZM5.16667 10.8333V8.16667V24.1667V10.8333Z" fill="#EDEDED"/>
</svg>
