<svg width="32" height="32" viewBox="0 0 32 32" fill="none" xmlns="http://www.w3.org/2000/svg">
<path d="M9.33301 18.6667C8.59967 18.6667 7.9719 18.4056 7.44967 17.8833C6.92745 17.3611 6.66634 16.7333 6.66634 16C6.66634 15.2667 6.92745 14.6389 7.44967 14.1167C7.9719 13.5944 8.59967 13.3333 9.33301 13.3333C10.0663 13.3333 10.6941 13.5944 11.2163 14.1167C11.7386 14.6389 11.9997 15.2667 11.9997 16C11.9997 16.7333 11.7386 17.3611 11.2163 17.8833C10.6941 18.4056 10.0663 18.6667 9.33301 18.6667ZM9.33301 24C7.11079 24 5.2219 23.2222 3.66634 21.6667C2.11079 20.1111 1.33301 18.2222 1.33301 16C1.33301 13.7778 2.11079 11.8889 3.66634 10.3333C5.2219 8.77778 7.11079 8 9.33301 8C10.8219 8 12.1719 8.36667 13.383 9.1C14.5941 9.83333 15.5552 10.8 16.2663 12H27.9997L31.9997 16L25.9997 22L23.333 20L20.6663 22L17.833 20H16.2663C15.5552 21.2 14.5941 22.1667 13.383 22.9C12.1719 23.6333 10.8219 24 9.33301 24ZM9.33301 21.3333C10.5775 21.3333 11.6719 20.9556 12.6163 20.2C13.5608 19.4444 14.1886 18.4889 14.4997 17.3333H18.6663L20.5997 18.7L23.333 16.6667L25.6997 18.5L28.1997 16L26.8663 14.6667H14.4997C14.1886 13.5111 13.5608 12.5556 12.6163 11.8C11.6719 11.0444 10.5775 10.6667 9.33301 10.6667C7.86634 10.6667 6.61079 11.1889 5.56634 12.2333C4.5219 13.2778 3.99967 14.5333 3.99967 16C3.99967 17.4667 4.5219 18.7222 5.56634 19.7667C6.61079 20.8111 7.86634 21.3333 9.33301 21.3333Z" fill="#EDEDED"/>
</svg>
